<svg xmlns="http://www.w3.org/2000/svg" viewBox="0 0 64 64" id="server-hosting">
  <rect width="32" height="8" x="3" y="48" fill="#5aaae7"></rect>
  <path fill="#004fac" d="M27,56h8V48A8,8,0,0,1,27,56Z"></path>
  <polygon fill="#006df0" points="3 14.86 3 8 35 8 35 16 3 16 3 14.86"></polygon>
  <path fill="#004fac" d="M27,16h8V8A8,8,0,0,1,27,16Z"></path>
  <rect width="32" height="8" x="3" y="16" fill="#5aaae7"></rect>
  <rect width="32" height="8" x="3" y="24" fill="#006df0"></rect>
  <rect width="32" height="8" x="3" y="32" fill="#5aaae7"></rect>
  <rect width="32" height="8" x="3" y="40" fill="#006df0"></rect>
  <rect width="32" height="1" x="3" y="16" fill="#00479b"></rect>
  <rect width="32" height="1" x="3" y="24" fill="#004fac"></rect>
  <rect width="32" height="1" x="3" y="32" fill="#004fac"></rect>
  <rect width="32" height="1" x="3" y="40" fill="#004fac"></rect>
  <rect width="32" height="1" x="3" y="48" fill="#004fac"></rect>
  <rect width="3" height="2" x="6" y="11" fill="#d80027"></rect>
  <rect width="21" height="2" x="11" y="11" fill="#ffda44"></rect>
  <rect width="2" height="2" x="6" y="19" fill="#d80027"></rect>
  <rect width="2" height="2" x="10" y="19" fill="#ffda44"></rect>
  <rect width="2" height="2" x="14" y="19" fill="#c2fb3b"></rect>
  <rect width="2" height="2" x="18" y="19" fill="#ff5023"></rect>
  <rect width="2" height="2" x="6" y="27" fill="#d80027"></rect>
  <rect width="2" height="2" x="10" y="27" fill="#ffda44"></rect>
  <rect width="2" height="2" x="14" y="27" fill="#c2fb3b"></rect>
  <rect width="2" height="2" x="18" y="27" fill="#ff5023"></rect>
  <rect width="2" height="2" x="6" y="35" fill="#d80027"></rect>
  <rect width="2" height="2" x="10" y="35" fill="#ffda44"></rect>
  <rect width="2" height="2" x="14" y="35" fill="#c2fb3b"></rect>
  <rect width="2" height="2" x="18" y="35" fill="#ff5023"></rect>
  <rect width="2" height="2" x="6" y="43" fill="#d80027"></rect>
  <rect width="2" height="2" x="10" y="43" fill="#ffda44"></rect>
  <rect width="2" height="2" x="14" y="43" fill="#c2fb3b"></rect>
  <rect width="2" height="2" x="6" y="51" fill="#d80027"></rect>
  <rect width="2" height="2" x="10" y="51" fill="#ffda44"></rect>
  <rect width="2" height="2" x="14" y="51" fill="#c2fb3b"></rect>
  <rect width="9.69" height="2" x="22" y="19" fill="#ffda44"></rect>
  <rect width="4" height="2" x="22" y="27" fill="#ffda44"></rect>
  <rect width="2" height="2" x="18" y="43" fill="#ff5023"></rect>
  <rect width="2" height="2" x="18" y="51" fill="#ff5023"></rect>
  <rect width="5" height="2" x="22" y="51" fill="#ffda44"></rect>
  <path fill="#004fac" d="M27,41h8V33A8,8,0,0,1,27,41Z"></path>
  <path fill="#ffda44" d="M39,38V56a17.963,17.963,0,0,1-14.97-8.02,17.779,17.779,0,0,1-2.92-7.99A18.662,18.662,0,0,1,21,38Z"></path>
  <path fill="#ff5023" d="M61,34A18,18,0,0,1,43,52V34H25a18.851,18.851,0,0,1,.11-2,17.7,17.7,0,0,1,2.92-7.98A17.5,17.5,0,0,1,31.69,20,17.27,17.27,0,0,1,35,17.88,17.749,17.749,0,0,1,43,16,18,18,0,0,1,61,34Z"></path>
</svg>
